<svg xmlns="http://www.w3.org/2000/svg" viewBox="0 0 24.58 22.75"><defs><style>.cls-1{isolation:isolate;opacity:0.8;}.cls-2{fill:#fff;}</style></defs><g id="レイヤー_2"><g id="design"><g class="cls-1"><path class="cls-2" d="M24.2,9.93,12.79.23a.65.65,0,0,0-1,0L.38,9.93c-.68.59-.4,1.35.5,1.35H2.35c.54,0,.77.22.77.77V22c0,.53.22.76.76.76H20.7c.54,0,.76-.23.76-.76V12.05c0-.55.23-.77.77-.77H23.7C24.61,11.28,24.88,10.52,24.2,9.93Zm-8.09,7.46c0,.54-.22.77-.77.77H9.24c-.54,0-.78-.23-.78-.77V12.81c0-.55.24-.76.78-.76h6.1c.53,0,.75.2.77.73Z"/></g></g></g></svg>