<svg xmlns="http://www.w3.org/2000/svg" viewBox="0 0 82 21.43"><defs><style>.cls-1{fill:#fff;fill-rule:evenodd;}</style></defs><g id="レイヤー_2"><g id="design"><path id="logo-nintendo.svg" class="cls-1" d="M15.2,12.69l-4.1-7h-3V15.74h2.95v-7l4.12,7h2.93V5.65H15.19ZM38.53,9.05v-1H37V6.69H34.12V8.05H32.56v1h1.56v6.69H37V9.05ZM19.77,15.74h2.86V9H19.77v6.71Zm0-8h2.87V5.65H19.76V7.71Zm50.13.86a4,4,0,0,0-4.18,3.77,4.2,4.2,0,0,0,8.36,0A4,4,0,0,0,69.89,8.57ZM71,13.75c0,1.07-.59,1.51-1.17,1.51s-1.17-.44-1.17-1.51V10.91c0-1.07.6-1.5,1.17-1.5S71,9.84,71,10.91v2.84ZM62,9.37a3.33,3.33,0,0,0-5.25,2.91,3.57,3.57,0,0,0,2,3.32A3.26,3.26,0,0,0,62,15.35v.39h2.83V5.65H62V9.37Zm0,3v1.19c0,1-.67,1.31-1.12,1.31s-1.12-.27-1.12-1.31V11.15a1.13,1.13,0,1,1,2.24,0ZM29.33,8.72a3.37,3.37,0,0,0-2.29,1V9H24.2v6.71H27V11.33A1.34,1.34,0,0,1,28.4,10.1a1.29,1.29,0,0,1,1.3,1.23v4.41h2.84V12.09a3.17,3.17,0,0,0-3-3.36Zm23.24,0a3.33,3.33,0,0,0-2.28,1c0-.17,0-.71,0-.71H47.45v6.71h2.84s0-4.12,0-4.41a1.35,1.35,0,0,1,1.36-1.23A1.3,1.3,0,0,1,53,11.33v4.41h2.84V12.09a3.17,3.17,0,0,0-3-3.36Zm-6,3.7a4.24,4.24,0,0,0-8.43,0,4,4,0,0,0,4.21,3.76,4.17,4.17,0,0,0,4.06-2.75H43.57v.41c0,1.23-.76,1.5-1.19,1.5s-1.19-.27-1.19-1.5V12.41Zm-5.2-2.37a1.14,1.14,0,0,1,1.53-.48,1.23,1.23,0,0,1,.48.48,2.71,2.71,0,0,1,.19,1.32H41.19A2.71,2.71,0,0,1,41.38,10.05ZM75.2,6.9c0-.33-.23-.49-.69-.49h-.64V8.13h.4V7.42h.19l.31.7h.44l-.36-.76A.45.45,0,0,0,75.2,6.9Zm-.74.27h-.19v-.5h.17c.24,0,.36.08.36.26s-.11.24-.34.24Zm0-1.44a1.56,1.56,0,1,0,1.46,1.65.28.28,0,0,0,0-.09,1.52,1.52,0,0,0-1.47-1.56Zm0,2.81a1.26,1.26,0,1,1,1.18-1.33.22.22,0,0,1,0,.08,1.22,1.22,0,0,1-1.19,1.25ZM71.28,0H10.72A10.45,10.45,0,0,0,0,10.73a10.44,10.44,0,0,0,10.73,10.7H71.27A10.43,10.43,0,0,0,82,10.73,10.46,10.46,0,0,0,71.28,0Zm0,18.8H10.74a7.79,7.79,0,0,1-8.21-8.08,7.81,7.81,0,0,1,8.21-8.08H71.26a7.81,7.81,0,0,1,8.21,8.08,7.79,7.79,0,0,1-8.21,8.08Z"/></g></g></svg>